<svg width="26" height="28" viewBox="0 0 26 28" fill="none" xmlns="http://www.w3.org/2000/svg">
<g clip-path="url(#clip0_1_723)">
<path d="M22.6421 1.75H3.39209C2.6959 1.75 2.02822 2.02656 1.53593 2.51884C1.04365 3.01113 0.76709 3.67881 0.76709 4.375L0.76709 23.625C0.76709 24.3212 1.04365 24.9889 1.53593 25.4812C2.02822 25.9734 2.6959 26.25 3.39209 26.25H10.8979V17.9205H7.45264V14H10.8979V11.0119C10.8979 7.61305 12.9214 5.73562 16.0205 5.73562C17.5047 5.73562 19.0568 6.00031 19.0568 6.00031V9.33625H17.3467C15.6618 9.33625 15.1362 10.3819 15.1362 11.4543V14H18.8976L18.2961 17.9205H15.1362V26.25H22.6421C23.3383 26.25 24.006 25.9734 24.4982 25.4812C24.9905 24.9889 25.2671 24.3212 25.2671 23.625V4.375C25.2671 3.67881 24.9905 3.01113 24.4982 2.51884C24.006 2.02656 23.3383 1.75 22.6421 1.75Z" fill="white"/>
</g>
<defs>
<clipPath id="clip0_1_723">
<rect width="24.5" height="28" fill="white" transform="translate(0.76709)"/>
</clipPath>
</defs>
</svg>
