<svg width="25" height="28" viewBox="0 0 25 28" fill="none" xmlns="http://www.w3.org/2000/svg">
<g clip-path="url(#clip0_1_727)">
<path d="M12.6421 11.083C12.0652 11.0832 11.5013 11.2544 11.0218 11.5751C10.5422 11.8958 10.1685 12.3514 9.94788 12.8845C9.72727 13.4175 9.66966 14.004 9.78234 14.5698C9.89501 15.1355 10.1729 15.6552 10.5809 16.063C10.9889 16.4709 11.5087 16.7486 12.0745 16.8611C12.6403 16.9735 13.2268 16.9157 13.7597 16.6949C14.2927 16.4741 14.7482 16.1002 15.0687 15.6205C15.3892 15.1408 15.5602 14.5769 15.5602 14C15.5596 13.2263 15.252 12.4846 14.7048 11.9376C14.1576 11.3906 13.4157 11.0833 12.6421 11.083ZM19.4622 8.84078C19.3137 8.46445 19.0894 8.12264 18.8033 7.83656C18.5173 7.55048 18.1755 7.32623 17.7991 7.17773C16.6507 6.72437 13.9163 6.82609 12.6421 6.82609C11.3679 6.82609 8.63623 6.72055 7.48451 7.17773C7.10818 7.32623 6.76637 7.55048 6.48029 7.83656C6.19421 8.12264 5.96996 8.46445 5.82146 8.84078C5.36865 9.98922 5.46982 12.7263 5.46982 13.9995C5.46982 15.2726 5.36865 18.0064 5.82365 19.1587C5.97215 19.535 6.1964 19.8768 6.48248 20.1629C6.76855 20.449 7.11036 20.6732 7.4867 20.8217C8.63514 21.2751 11.3695 21.1734 12.6443 21.1734C13.919 21.1734 16.6496 21.2789 17.8013 20.8217C18.1776 20.6732 18.5195 20.449 18.8055 20.1629C19.0916 19.8768 19.3159 19.535 19.4644 19.1587C19.921 18.0102 19.816 15.2731 19.816 14C19.816 12.7269 19.921 9.99359 19.4644 8.84133L19.4622 8.84078ZM12.6421 18.4844C11.7552 18.4844 10.8882 18.2214 10.1507 17.7286C9.41325 17.2359 8.83848 16.5355 8.49907 15.7161C8.15966 14.8967 8.07085 13.995 8.24388 13.1251C8.41691 12.2553 8.84401 11.4562 9.47116 10.8291C10.0983 10.2019 10.8973 9.77482 11.7672 9.60179C12.6371 9.42876 13.5388 9.51757 14.3582 9.85698C15.1776 10.1964 15.878 10.7712 16.3707 11.5086C16.8635 12.2461 17.1265 13.1131 17.1265 14C17.1272 14.5891 17.0117 15.1726 16.7866 15.7169C16.5615 16.2613 16.2312 16.756 15.8146 17.1725C15.3981 17.5891 14.9034 17.9194 14.359 18.1445C13.8146 18.3696 13.2312 18.4851 12.6421 18.4844ZM17.3113 10.3742C17.1043 10.3743 16.9018 10.313 16.7296 10.1981C16.5574 10.0831 16.4232 9.91969 16.3439 9.72844C16.2646 9.53719 16.2438 9.32671 16.2841 9.12363C16.3244 8.92055 16.4241 8.73399 16.5704 8.58755C16.7168 8.44111 16.9033 8.34137 17.1064 8.30093C17.3094 8.2605 17.5199 8.2812 17.7112 8.36041C17.9025 8.43961 18.066 8.57377 18.181 8.74592C18.2961 8.91806 18.3575 9.12046 18.3575 9.3275C18.3581 9.46499 18.3315 9.60124 18.2793 9.72844C18.2271 9.85564 18.1503 9.97128 18.0533 10.0687C17.9563 10.1662 17.841 10.2435 17.7141 10.2963C17.5871 10.3491 17.451 10.3763 17.3135 10.3764L17.3113 10.3742ZM22.2671 1.75H3.01709C2.3209 1.75 1.65322 2.02656 1.16093 2.51884C0.668652 3.01113 0.39209 3.67881 0.39209 4.375L0.39209 23.625C0.39209 24.3212 0.668652 24.9889 1.16093 25.4812C1.65322 25.9734 2.3209 26.25 3.01709 26.25H22.2671C22.9633 26.25 23.631 25.9734 24.1232 25.4812C24.6155 24.9889 24.8921 24.3212 24.8921 23.625V4.375C24.8921 3.67881 24.6155 3.01113 24.1232 2.51884C23.631 2.02656 22.9633 1.75 22.2671 1.75ZM21.3308 17.6094C21.2603 19.011 20.9404 20.253 19.9172 21.2734C18.894 22.2939 17.6531 22.6204 16.2531 22.6871C14.8088 22.7686 10.4787 22.7686 9.03436 22.6871C7.63271 22.6166 6.39514 22.2961 5.37029 21.2734C4.34545 20.2508 4.02334 19.0083 3.95662 17.6094C3.87514 16.1645 3.87514 11.8338 3.95662 10.3906C4.02717 8.98898 4.34326 7.74703 5.37029 6.72656C6.39732 5.70609 7.63818 5.38344 9.03436 5.31672C10.4787 5.23523 14.8088 5.23523 16.2531 5.31672C17.6547 5.38727 18.8962 5.70773 19.9172 6.73039C20.9382 7.75305 21.2641 8.99555 21.3308 10.3972C21.4123 11.8366 21.4123 16.1634 21.3308 17.6094Z" fill="white"/>
</g>
<defs>
<clipPath id="clip0_1_727">
<rect width="24.5" height="28" fill="white" transform="translate(0.39209)"/>
</clipPath>
</defs>
</svg>
