<svg width="21" height="24" viewBox="0 0 21 24" fill="none" xmlns="http://www.w3.org/2000/svg">
<g clip-path="url(#clip0_1_705)">
<path d="M7.58262 22.341L1.35699 23.447V10.1751L7.58262 9.06909V22.341Z" stroke="white" stroke-width="2" stroke-linecap="round" stroke-linejoin="round"/>
<path d="M7.58264 22.341L13.8226 23.447V10.1751L7.58264 9.06909V22.341Z" stroke="white" stroke-width="2" stroke-linecap="round" stroke-linejoin="round"/>
<path d="M20.0483 22.341L13.8226 23.447V10.1751L20.0483 9.06909V22.341Z" stroke="white" stroke-width="2" stroke-linecap="round" stroke-linejoin="round"/>
</g>
<path d="M16.3727 6.43176C16.3727 7.08725 16.0565 8.12028 15.4599 9.4122C14.881 10.6658 14.1005 12.0346 13.3071 13.3137C12.5158 14.5894 11.7228 15.7583 11.1269 16.6092C11.0625 16.7011 11.0004 16.7893 10.941 16.8734C10.8815 16.7893 10.8195 16.7011 10.7551 16.6092C10.1591 15.7583 9.36619 14.5894 8.5749 13.3137C7.7815 12.0346 7.00096 10.6658 6.42206 9.4122C5.82548 8.12028 5.50922 7.08725 5.50922 6.43176C5.50922 4.99117 6.08149 3.60958 7.10014 2.59093C8.11879 1.57227 9.50038 1 10.941 1C12.3816 1 13.7632 1.57227 14.7818 2.59093C15.8005 3.60958 16.3727 4.99117 16.3727 6.43176Z" fill="black" stroke="white" stroke-width="2" stroke-linecap="round" stroke-linejoin="round"/>
<path d="M10.9402 8.57568C12.1243 8.57568 13.0842 7.61582 13.0842 6.43176C13.0842 5.24771 12.1243 4.28784 10.9402 4.28784C9.75619 4.28784 8.79633 5.24771 8.79633 6.43176C8.79633 7.61582 9.75619 8.57568 10.9402 8.57568Z" stroke="white" stroke-linecap="round" stroke-linejoin="round"/>
<defs>
<clipPath id="clip0_1_705">
<rect width="20.129" height="15.4839" fill="white" transform="translate(0.638123 8.51611)"/>
</clipPath>
</defs>
</svg>
