<svg width="25" height="24" viewBox="0 0 25 24" fill="none" xmlns="http://www.w3.org/2000/svg">
<path d="M22.7671 16.9201V19.9201C22.7683 20.1986 22.7112 20.4743 22.5997 20.7294C22.4881 20.9846 22.3244 21.2137 22.1192 21.402C21.914 21.5902 21.6717 21.7336 21.4079 21.8228C21.1441 21.912 20.8645 21.9452 20.5871 21.9201C17.51 21.5857 14.5541 20.5342 11.9571 18.8501C9.54097 17.3148 7.49248 15.2663 5.95715 12.8501C4.26712 10.2413 3.21539 7.27109 2.88715 4.1801C2.86216 3.90356 2.89502 3.62486 2.98365 3.36172C3.07227 3.09859 3.21472 2.85679 3.40191 2.65172C3.58911 2.44665 3.81695 2.28281 4.07094 2.17062C4.32492 2.05843 4.59949 2.00036 4.87715 2.0001H7.87715C8.36245 1.99532 8.83294 2.16718 9.20091 2.48363C9.56888 2.80008 9.80922 3.23954 9.87714 3.7201C10.0038 4.68016 10.2386 5.62282 10.5771 6.5301C10.7117 6.88802 10.7408 7.27701 10.6611 7.65098C10.5813 8.02494 10.396 8.36821 10.1271 8.6401L8.85715 9.9101C10.2807 12.4136 12.3536 14.4865 14.8571 15.9101L16.1271 14.6401C16.399 14.3712 16.7423 14.1859 17.1163 14.1062C17.4902 14.0264 17.8792 14.0556 18.2371 14.1901C19.1444 14.5286 20.0871 14.7635 21.0471 14.8901C21.5329 14.9586 21.9765 15.2033 22.2937 15.5776C22.6108 15.9519 22.7793 16.4297 22.7671 16.9201Z" stroke="white" stroke-width="2" stroke-linecap="round" stroke-linejoin="round"/>
</svg>
