<svg width="28" height="28" viewBox="0 0 28 28" fill="none" xmlns="http://www.w3.org/2000/svg">
<g clip-path="url(#clip0_1_725)">
<path d="M13.8296 0.4375C6.3374 0.4375 0.26709 6.50781 0.26709 14C0.26709 21.4922 6.3374 27.5625 13.8296 27.5625C21.3218 27.5625 27.3921 21.4922 27.3921 14C27.3921 6.50781 21.3218 0.4375 13.8296 0.4375ZM20.4905 9.72891L18.2647 20.218C18.1007 20.9617 17.6577 21.1422 17.0397 20.7922L13.6491 18.293L12.014 19.868C11.8335 20.0484 11.6804 20.2016 11.3304 20.2016L11.571 16.7508L17.8546 11.0742C18.128 10.8336 17.7944 10.6969 17.4335 10.9375L9.66787 15.8266L6.321 14.782C5.59365 14.5523 5.57725 14.0547 6.47412 13.7047L19.5499 8.6625C20.1569 8.44375 20.6874 8.81016 20.4905 9.72891Z" fill="white"/>
</g>
<defs>
<clipPath id="clip0_1_725">
<rect width="27.125" height="28" fill="white" transform="translate(0.26709)"/>
</clipPath>
</defs>
</svg>
