<svg width="26" height="28" viewBox="0 0 26 28" fill="none" xmlns="http://www.w3.org/2000/svg">
<g clip-path="url(#clip0_1_729)">
<path d="M22.7671 1.75H3.51709C2.06787 1.75 0.89209 2.92578 0.89209 4.375V23.625C0.89209 25.0742 2.06787 26.25 3.51709 26.25H22.7671C24.2163 26.25 25.3921 25.0742 25.3921 23.625V4.375C25.3921 2.92578 24.2163 1.75 22.7671 1.75ZM20.0929 10.4344C20.1038 10.5875 20.1038 10.7461 20.1038 10.8992C20.1038 15.6406 16.4944 21.1039 9.89912 21.1039C7.86475 21.1039 5.97803 20.5133 4.39209 19.4961C4.68193 19.5289 4.96084 19.5398 5.25615 19.5398C6.93506 19.5398 8.47725 18.9711 9.70771 18.0086C8.13271 17.9758 6.80928 16.9422 6.35537 15.5203C6.90771 15.6023 7.40537 15.6023 7.97412 15.4547C6.3335 15.1211 5.10303 13.6773 5.10303 11.9328V11.8891C5.57881 12.157 6.13662 12.3211 6.72178 12.343C6.22982 12.0157 5.82653 11.5718 5.54789 11.0508C5.26925 10.5298 5.12394 9.94788 5.1249 9.35703C5.1249 8.68984 5.2999 8.07734 5.61162 7.54688C7.37803 9.72344 10.0304 11.1453 13.0054 11.2984C12.4968 8.86484 14.3179 6.89062 16.5054 6.89062C17.539 6.89062 18.4687 7.32266 19.1249 8.02266C19.9343 7.86953 20.7108 7.56875 21.3999 7.15859C21.1319 7.98984 20.5687 8.68984 19.8249 9.13281C20.5468 9.05625 21.2468 8.85391 21.8921 8.575C21.4054 9.29141 20.7929 9.92578 20.0929 10.4344Z" fill="white"/>
</g>
<defs>
<clipPath id="clip0_1_729">
<rect width="24.5" height="28" fill="white" transform="translate(0.89209)"/>
</clipPath>
</defs>
</svg>
